<svg xmlns="http://www.w3.org/2000/svg" id="Layer_1" data-name="Layer 1" viewBox="0 0 399.97 400.01"><defs><style>.cls-1{fill:#6b2c2c}.cls-2{fill:#faf8f3}.cls-3{fill:#d97e5c}.cls-4{fill:none;stroke:#faf8f3;stroke-width:2.11px}</style></defs><path d="M1.83,392.04V5.7s0,0,0,0c.19-1.57.81-2.86,1.82-3.88C4.67.81,5.95.19,7.53,0c0,0,0,0,0,0h386.71s0,0,0,0c1.57.19,2.86.81,3.88,1.82,1.01,1.02,1.63,2.31,1.82,3.88,0,0,0,0,0,0v386.85s0,0,0,0c-.19,1.57-.81,2.86-1.82,3.88-1.02,1.01-2.3,1.63-3.88,1.82,0,0,0,0,0,0H7.53s0,0,0,0c-1.57-.19-2.86-.81-3.88-1.82-.58-.58-1.03-1.26-1.35-2.02-.32-.76-.47-1.56-.47-2.38" class="cls-1"/><g><path d="M108.46,255.35v-9.67s.01-.03.03-.03c7.28-.33,12.74-1.17,16.38-2.56,3.65-1.37,6.08-4.01,7.29-7.9,1.22-3.89,1.83-9.64,1.83-17.26v-112.33c0-7.46-.57-13.13-1.7-17.02-1.13-3.89-3.32-6.56-6.56-8.02s-8.09-2.35-14.56-2.67c-.01,0-.03-.01-.03-.03v-9.67s.01-.03.03-.03h83.83s.03.01.03.03v9.67s-.01.03-.03.03c-7.28.16-12.7,1.01-16.26,2.56-3.57,1.53-5.96,4.33-7.18,8.38-1.22,4.05-1.82,10.21-1.82,18.48v53.91s.03.04.05.02l62.93-67.54c3.73-4.05,5.59-7.46,5.59-10.21,0-1.78-1.18-3.16-3.53-4.13-2.35-.97-6.67-1.46-12.98-1.46-.01,0-.03-.01-.03-.03v-9.67s.01-.03.03-.03h66.32s.03.01.03.03v9.43s-.01.03-.03.03c-4.69.16-8.73.77-12.13,1.83-3.4,1.05-7.05,3.15-10.94,6.31-3.89,3.16-9.08,8.15-15.56,14.96l-43.26,45.21s0,.02,0,.03l71.47,87.03c3.4,4.21,7.17,7.29,11.31,9.24,4.12,1.94,9.42,3.08,15.9,3.4.01,0,.02.01.02.03v9.67s-.01.03-.03.03h-89.91s-.03-.01-.03-.03v-9.67s.01-.03.03-.03c6.63-.16,11.4-.77,14.32-1.83,2.92-1.05,4.38-2.63,4.38-4.74,0-1.62-.53-3.32-1.58-5.11s-3.44-4.94-7.17-9.48l-43.02-52.98s-.03-.01-.04,0l-12.13,12.61s0,.01,0,.02v32.08c0,8.1.52,14.22,1.58,18.35,1.05,4.14,3.24,6.93,6.56,8.39,3.32,1.46,8.3,2.35,14.93,2.67.01,0,.03.01.03.03v9.67s-.01.03-.03.03h-84.32s-.03-.01-.03-.03Z" class="cls-2"/><rect width="397.86" height="88.41" x="1" y="310.64" class="cls-3" rx=".03" ry=".03"/><path d="M5.48,1.09h390.26s0,0,.01,0c2.1,1.04,3.17,2.5,3.17,4.42v389.73s-.03,1.37-.49,1.99c-1.02,1.79-2.16,1.72-3.93,1.72H4.23s0,0-.01,0c-2.1-1.04-3.17-2.5-3.17-4.42V4.27s0,0,0-.01C2.1,2.16,3.56,1.09,5.48,1.09Z" class="cls-4"/><path d="M49.09,370.3c2.1,0,3.97-.46,5.6-1.36,1.63-.91,2.91-2.17,3.84-3.79.93-1.61,1.39-3.51,1.39-5.67s-.46-4.06-1.39-5.68c-.93-1.62-2.21-2.88-3.84-3.79-1.63-.91-3.5-1.36-5.6-1.36h-5.02s-.03.01-.03.03v2.58s.01.03.03.03h5.02c1.22,0,2.33.19,3.34.57,1.01.38,1.88.93,2.6,1.64.72.71,1.28,1.57,1.67,2.59.39,1.01.59,2.14.59,3.4s-.2,2.39-.59,3.4c-.39,1.01-.95,1.87-1.67,2.58-.72.71-1.59,1.26-2.6,1.64-1.01.38-2.12.57-3.34.57h-5.02s-.03.01-.03.03v2.58s.01.03.03.03h5.02ZM42.62,370.3h2.58s.03-.01.03-.03v-21.61s-.01-.03-.03-.03h-2.58s-.03.01-.03.03v21.61s.01.03.03.03Z" class="cls-2"/><path d="M74.68,370.3h2.58s.03-.01.03-.03v-21.61s-.01-.03-.03-.03h-2.58s-.03.01-.03.03v21.61s.01.03.03.03ZM89.23,370.3h2.58s.03-.01.03-.03v-21.61s-.01-.03-.03-.03h-2.58s-.03.01-.03.03v21.61s.01.03.03.03ZM76.12,359.78h14.85v-2.48h-14.85v2.48Z" class="cls-2"/><rect width="2.63" height="21.66" x="107.81" y="348.64" class="cls-2" rx=".03" ry=".03"/><path d="M126.44,348.66v21.61s.01.03.03.03h11.11v-2.48h-8.48s-.03-.01-.03-.03v-19.13s-.01-.03-.03-.03h-2.58s-.03.01-.03.03Z" class="cls-2"/><path d="M151.4,348.66v21.61s.01.03.03.03h11.11v-2.48h-8.48s-.03-.01-.03-.03v-19.13s-.01-.03-.03-.03h-2.58s-.03.01-.03.03Z" class="cls-2"/><path d="M174.2,359.47c0,1.57.27,3.04.82,4.39.55,1.36,1.32,2.54,2.31,3.54.99,1,2.16,1.78,3.5,2.36,1.34.57,2.79.85,4.36.85s3.05-.28,4.38-.85c1.33-.57,2.49-1.36,3.49-2.36.99-1,1.75-2.18,2.31-3.54.55-1.36.82-2.82.82-4.39s-.27-3.06-.82-4.41c-.55-1.35-1.32-2.52-2.31-3.52-.99-1-2.15-1.78-3.49-2.35-1.33-.57-2.78-.85-4.38-.85s-3.02.28-4.36.85c-1.34.57-2.51,1.35-3.5,2.35-.99,1-1.76,2.17-2.31,3.52-.55,1.36-.82,2.82-.82,4.41M176.98,359.47c0-1.63.35-3.09,1.07-4.36.71-1.28,1.69-2.29,2.93-3.04,1.24-.74,2.64-1.11,4.21-1.11s3,.37,4.22,1.11c1.23.74,2.2,1.75,2.91,3.04.71,1.27,1.07,2.73,1.07,4.36s-.35,3.09-1.07,4.36c-.72,1.28-1.68,2.29-2.91,3.04-1.22.74-2.63,1.11-4.22,1.11s-2.97-.37-4.21-1.11c-1.24-.74-2.22-1.75-2.93-3.04-.71-1.27-1.07-2.73-1.07-4.36" class="cls-2"/><path d="M227.3,348.66v16.03s-.03.04-.05.02l-16.31-17.11s-.05,0-.05.02v22.65s.01.03.03.03h2.58s.03-.01.03-.03v-16.03s.03-.04.05-.02l16.31,17.11s.05,0,.05-.02v-22.65s-.01-.03-.03-.03h-2.58s-.03.01-.03.03Z" class="cls-2"/><path d="M266.24,348.66v21.61s.01.03.03.03h11.11v-2.48h-8.48s-.03-.01-.03-.03v-19.13s-.01-.03-.03-.03h-2.58s-.03.01-.03.03Z" class="cls-2"/><path d="M299.84,353.59s.04-.02.05,0l3.69,8.67.24.62,3.15,7.41s.01.02.02.02h2.92l-10.03-22.69s-.04-.02-.05,0l-10.03,22.69h2.92s.02,0,.02-.02l3.21-7.59.25-.56,3.63-8.54ZM294.2,363.8h11.45l-.92-2.46s-.01-.02-.02-.02h-9.56s-.02,0-.02.02l-.92,2.46Z" class="cls-2"/><path d="M339.74,364.51l-6.39-16.89s-.04-.02-.05,0l-6.26,16.89s-.04.02-.05,0l-5.73-15.85s-.01-.02-.02-.02h-2.92l8.49,22.68s.04.02.05,0l6.45-16.71s.04-.02.05,0l6.45,16.71s.04.02.05,0l8.49-22.68h-2.92s-.02,0-.02.02l-5.6,15.85s-.04.02-.05,0Z" class="cls-2"/></g></svg>