<?xml version="1.0" encoding="UTF-8"?>
<svg id="Layer_1" data-name="Layer 1" xmlns="http://www.w3.org/2000/svg" viewBox="0 0 227.92 227.92">
  <defs>
    <style>
      .cls-1 {
        fill: #6b2c2c;
      }

      .cls-2 {
        fill: #faf8f3;
      }

      .cls-3 {
        fill: none;
        stroke: #6b2c2c;
        stroke-width: 2.11px;
      }
    </style>
  </defs>
  <path class="cls-2" d="M0,224.36V3.26s0,0,0,0c.11-.9.46-1.64,1.04-2.22C1.63.46,2.36.11,3.26,0c0,0,0,0,0,0h221.4s0,0,0,0c.9.11,1.64.46,2.22,1.04.58.58.94,1.32,1.04,2.22,0,0,0,0,0,0v221.4s0,0,0,0c-.11.9-.46,1.64-1.04,2.22-.58.58-1.32.94-2.22,1.04,0,0,0,0,0,0H3.26s0,0,0,0c-.9-.11-1.64-.46-2.22-1.04-.33-.33-.59-.72-.77-1.16C.09,225.29,0,224.84,0,224.36"/>
  <g>
    <path class="cls-3" d="M3.96,1.46h220c.69,0,1.28.25,1.77.73s.73,1.07.73,1.77v220c0,.69-.25,1.28-.73,1.77s-1.07.73-1.77.73H3.96c-.69,0-1.28-.25-1.77-.73s-.73-1.07-.73-1.77V3.96c0-.69.25-1.28.73-1.77s1.07-.73,1.77-.73Z"/>
    <path class="cls-1" d="M62.23,145.21v-5.5c4.12-.18,7.22-.66,9.28-1.45,2.06-.78,3.44-2.27,4.12-4.47.69-2.2,1.03-5.45,1.03-9.76v-63.53c0-4.22-.32-7.43-.96-9.63-.64-2.2-1.88-3.71-3.71-4.54s-4.58-1.33-8.25-1.51v-5.5h47.44v5.5c-4.12.09-7.2.57-9.21,1.45-2.02.87-3.37,2.45-4.06,4.74-.69,2.29-1.03,5.77-1.03,10.45v30.52l35.61-38.22c2.11-2.29,3.16-4.22,3.16-5.78,0-1.01-.67-1.79-2-2.34-1.33-.55-3.78-.82-7.35-.82v-5.5h37.54v5.36c-2.66.09-4.95.44-6.87,1.03-1.93.59-3.99,1.78-6.19,3.57-2.2,1.79-5.13,4.61-8.8,8.46l-24.47,25.58,40.42,49.22c1.93,2.38,4.05,4.12,6.4,5.22,2.33,1.1,5.34,1.74,9,1.93v5.5h-50.87v-5.5c3.76-.09,6.46-.43,8.11-1.03,1.65-.6,2.48-1.49,2.48-2.68,0-.92-.3-1.88-.9-2.89s-1.95-2.8-4.05-5.36l-24.34-29.98-6.87,7.15v18.15c0,4.58.3,8.04.89,10.38.6,2.34,1.83,3.92,3.71,4.75s4.7,1.33,8.46,1.51v5.5h-47.71Z"/>
    <rect class="cls-1" x="1.46" y="176.46" width="225" height="50"/>
    <path class="cls-2" d="M28.66,210.2c1.19,0,2.25-.26,3.17-.77.92-.51,1.65-1.23,2.17-2.15.52-.91.79-1.98.79-3.21s-.26-2.3-.79-3.21c-.53-.92-1.25-1.63-2.17-2.15-.92-.51-1.98-.77-3.17-.77h-2.85v1.49h2.85c.69,0,1.32.11,1.89.32.57.22,1.06.52,1.47.93.41.4.72.89.95,1.46.22.57.33,1.21.33,1.93s-.11,1.35-.33,1.93c-.22.57-.54,1.06-.95,1.46-.41.4-.9.71-1.47.93-.57.22-1.2.33-1.89.33h-2.85v1.49h2.85ZM24.98,210.2h1.49v-12.25h-1.49v12.25Z"/>
    <path class="cls-2" d="M43.12,210.2h1.49v-12.25h-1.49v12.25ZM51.34,210.2h1.49v-12.25h-1.49v12.25ZM43.94,204.25h8.4v-1.4h-8.4v1.4Z"/>
    <rect class="cls-2" x="61.87" y="197.95" width="1.49" height="12.25"/>
    <polygon class="cls-2" points="72.4 197.95 72.4 210.2 78.7 210.2 78.7 208.8 73.89 208.8 73.89 197.95 72.4 197.95"/>
    <polygon class="cls-2" points="86.52 197.95 86.52 210.2 92.82 210.2 92.82 208.8 88 208.8 88 197.95 86.52 197.95"/>
    <path class="cls-2" d="M99.41,204.08c0,.89.15,1.72.46,2.48.31.77.75,1.44,1.3,2,.56.57,1.22,1.01,1.98,1.33.76.32,1.58.48,2.47.48s1.73-.16,2.47-.48c.75-.33,1.41-.77,1.97-1.33.56-.57.99-1.23,1.3-2,.31-.77.46-1.6.46-2.48s-.15-1.73-.46-2.5c-.31-.76-.75-1.42-1.3-1.99-.56-.57-1.22-1.01-1.97-1.33-.75-.33-1.57-.48-2.47-.48s-1.71.16-2.47.48c-.76.32-1.42.76-1.98,1.33-.56.57-1,1.23-1.3,1.99-.31.77-.46,1.6-.46,2.5M100.98,204.08c0-.92.2-1.75.6-2.47.4-.73.95-1.3,1.65-1.72.7-.42,1.49-.63,2.38-.63s1.7.21,2.39.63c.7.42,1.24.99,1.65,1.72.4.72.6,1.55.6,2.47s-.2,1.75-.6,2.47c-.4.73-.95,1.3-1.65,1.72-.69.42-1.49.63-2.39.63s-1.68-.21-2.38-.63c-.7-.42-1.25-.99-1.65-1.72-.4-.72-.6-1.55-.6-2.47"/>
    <polygon class="cls-2" points="129.44 197.95 129.44 207.07 120.17 197.34 120.17 210.2 121.65 210.2 121.65 201.09 130.93 210.82 130.93 197.95 129.44 197.95"/>
    <polygon class="cls-2" points="151.46 197.95 151.46 210.2 157.76 210.2 157.76 208.8 152.95 208.8 152.95 197.95 151.46 197.95"/>
    <path class="cls-2" d="M170.48,200.72l2.1,4.93.14.35,1.79,4.2h1.66l-5.69-12.86-5.69,12.86h1.66l1.82-4.3.14-.32,2.07-4.86ZM167.27,206.53h6.47l-.52-1.4h-5.43l-.52,1.4Z"/>
    <polygon class="cls-2" points="193.04 206.96 189.4 197.34 185.83 206.96 182.57 197.95 180.91 197.95 185.72 210.81 189.4 201.29 193.07 210.81 197.89 197.95 196.22 197.95 193.04 206.96"/>
  </g>
</svg>